<svg width="23" height="74" viewBox="0 0 23 74" fill="none" xmlns="http://www.w3.org/2000/svg">
<path fill-rule="evenodd" clip-rule="evenodd" d="M0.0106812 0C0.272461 6.11931 5.31625 11 11.5 11H11V12.0096H12V11H11.5C17.6837 11 22.7275 6.11931 22.9893 0H0.0106812ZM11 16.0481V14.0288H12V16.0481H11ZM11 20.0865V18.0673H12V20.0865H11ZM11 24.125V22.1058H12V24.125H11ZM11 28.1635V26.1442H12V28.1635H11ZM11 32.2019V30.1827H12V32.2019H11ZM11 36.2404V34.2212H12V36.2404H11ZM11 40.2788V38.2596H12V40.2788H11ZM11 44.3173V42.2981H12V44.3173H11ZM11 48.3558V46.3365H12V48.3558H11ZM11 52.3942V50.375H12V52.3942H11ZM11 56.4327V54.4135H12V56.4327H11ZM11 60.4711V58.4519H12V60.4711H11ZM11 63.0107V62.4904H12V63.0107C17.9535 63.2654 22.7346 68.0465 22.9893 74H0.0106812C0.265366 68.0465 5.04648 63.2654 11 63.0107Z" fill="white"/>
</svg>
